<?xml version="1.0" standalone="no"?>
<!DOCTYPE svg PUBLIC "-//W3C//DTD SVG 20010904//EN"
 "http://www.w3.org/TR/2001/REC-SVG-20010904/DTD/svg10.dtd">
<svg version="1.0" xmlns="http://www.w3.org/2000/svg"
 width="2024.000000pt" height="2024.000000pt" viewBox="0 0 2024.000000 2024.000000"
 preserveAspectRatio="xMidYMid meet">

<g transform="translate(0.000000,2024.000000) scale(0.100000,-0.100000)"
fill="#000000" stroke="none">
<path d="M0 10120 l0 -10120 10120 0 10120 0 0 10120 0 10120 -10120 0 -10120
0 0 -10120z m3436 2099 c268 -47 438 -188 485 -403 28 -122 15 -393 -22 -466
-4 -8 -18 -37 -30 -63 -34 -68 -123 -157 -201 -201 -123 -68 -297 -106 -495
-106 l-123 0 -2 -257 -3 -258 -222 -3 -223 -2 0 878 c0 483 3 882 7 885 11 11
764 8 829 -4z m1429 -874 l0 -880 -222 -3 -223 -2 0 885 0 885 223 -2 222 -3
0 -880z m1082 689 c65 -108 125 -210 133 -225 8 -16 20 -29 27 -29 11 0 133
193 133 211 0 5 5 9 10 9 6 0 10 4 10 9 0 5 28 56 63 113 l63 103 239 3 c131
1 242 -1 246 -5 4 -5 -43 -87 -103 -183 -61 -96 -132 -209 -158 -250 -25 -41
-92 -148 -148 -236 -56 -89 -104 -169 -108 -178 -4 -10 10 -41 35 -82 23 -36
41 -67 41 -70 0 -2 15 -28 34 -57 28 -44 104 -170 166 -276 9 -14 68 -114 133
-222 64 -108 117 -199 117 -203 0 -3 -114 -6 -253 -6 l-252 0 -145 245 c-80
135 -150 244 -157 242 -7 -1 -62 -85 -122 -187 -61 -102 -126 -211 -146 -242
l-35 -58 -240 0 c-188 0 -240 3 -240 13 0 7 52 96 117 197 64 102 159 253 211
335 52 83 123 196 157 252 l63 101 -32 54 c-18 29 -49 82 -71 118 -21 36 -61
103 -90 150 -138 225 -315 527 -315 538 0 9 63 12 249 12 l249 0 119 -196z
m2541 4 l2 -188 -362 -2 -363 -3 -3 -130 c-1 -71 0 -140 3 -152 l5 -23 288 -2
287 -3 3 -187 c1 -104 1 -189 0 -190 -2 -1 -133 -4 -293 -7 l-290 -6 0 -150 0
-150 370 -5 370 -5 0 -185 0 -185 -589 -3 c-465 -2 -591 0 -598 10 -9 16 -11
1742 -1 1751 3 4 268 6 587 5 l581 -3 3 -187z m992 -503 l5 -690 341 -3 c261
-2 343 -5 345 -15 2 -6 3 -92 1 -189 l-3 -178 -569 0 -570 0 0 878 c0 483 3
882 7 886 4 3 104 5 222 4 l216 -3 5 -690z m2116 671 c115 -31 157 -52 228
-117 91 -83 126 -171 126 -319 0 -172 -69 -295 -197 -352 -41 -18 -50 -38 -17
-38 8 0 44 -14 79 -31 107 -51 173 -141 197 -267 12 -66 5 -214 -12 -257 -57
-139 -133 -222 -260 -283 -149 -72 -168 -74 -672 -79 l-448 -4 0 885 0 886
443 0 c434 0 444 -1 533 -24z m1263 -5 c12 -16 21 -31 21 -34 0 -2 34 -64 75
-137 41 -73 75 -134 75 -135 0 -2 23 -42 50 -90 28 -48 50 -90 50 -93 0 -4 9
-17 18 -30 23 -30 21 -32 112 143 40 77 76 145 80 150 4 6 31 57 60 115 29 58
60 113 68 123 14 15 39 17 253 17 131 0 240 -3 242 -7 3 -5 -14 -42 -37 -83
-39 -68 -203 -362 -271 -485 -15 -27 -39 -70 -53 -95 -14 -25 -50 -90 -80
-145 -30 -55 -73 -129 -96 -165 l-41 -65 -3 -363 -3 -362 -222 2 -222 3 -5
366 c-3 253 -9 370 -16 380 -7 8 -21 30 -32 49 -10 19 -50 87 -87 150 -37 63
-76 129 -86 147 -10 17 -44 76 -77 130 -32 54 -99 166 -147 248 -48 83 -105
179 -127 214 -21 36 -38 68 -38 73 0 4 117 8 259 8 l260 0 20 -29z m2871 -161
l0 -190 -262 -2 -263 -3 -3 -692 -2 -693 -225 0 -225 0 -2 693 -3 692 -262 3
-263 2 0 183 c0 101 3 187 7 190 3 4 343 7 755 7 l748 0 0 -190z m1625 0 l0
-185 -360 -5 -360 -5 0 -150 0 -150 288 -3 287 -2 -2 -193 -3 -192 -287 -3
-288 -2 0 -155 0 -155 365 0 365 0 0 -190 0 -190 -590 0 -590 0 0 885 0 885
588 -2 587 -3 0 -185z m-5315 -2351 c123 -40 189 -78 256 -146 116 -119 163
-225 189 -431 13 -97 13 -127 0 -225 -21 -170 -51 -254 -136 -378 -43 -63 -86
-104 -161 -151 -75 -47 -92 -55 -192 -83 -73 -21 -110 -25 -216 -25 -214 0
-363 55 -496 185 -123 120 -189 291 -201 518 -17 304 119 577 340 685 91 44
117 52 257 76 14 3 86 3 160 1 102 -3 151 -10 200 -26z m-7320 -8 c10 -9 62
-81 116 -161 53 -80 149 -221 212 -314 63 -93 145 -218 182 -277 37 -60 69
-106 72 -104 2 3 2 197 0 431 -4 356 -2 428 9 435 20 12 296 11 320 -1 18 -10
19 -29 19 -705 0 -544 -3 -696 -12 -702 -16 -10 -330 -14 -344 -5 -9 6 -71 95
-372 540 -63 92 -131 196 -152 232 -21 36 -44 73 -52 83 -11 14 -12 -55 -10
-416 l4 -434 -24 -6 c-30 -9 -281 -9 -302 -1 -14 6 -16 77 -16 709 0 553 3
704 13 709 6 3 81 5 165 4 126 -1 157 -4 172 -17z m2328 7 c8 -8 12 -56 12
-149 0 -116 -2 -138 -16 -143 -9 -3 -139 -6 -289 -6 -240 0 -274 -2 -279 -16
-8 -20 -8 -198 0 -218 5 -14 36 -16 235 -16 l229 0 0 -149 c0 -119 -3 -150
-14 -154 -8 -3 -110 -5 -226 -5 -170 0 -214 -2 -221 -13 -9 -14 -10 -186 -2
-220 5 -18 23 -19 297 -21 l291 -3 3 -146 c2 -145 2 -147 -20 -153 -39 -10
-884 -7 -912 4 l-26 10 0 693 c0 526 3 696 12 705 17 17 909 17 926 0z m1509
1 c18 -16 19 -268 1 -291 -11 -15 -38 -16 -210 -15 -109 1 -199 2 -200 2 -2 0
-5 -250 -8 -555 l-5 -555 -175 0 -175 0 -3 553 -2 552 -183 1 c-100 1 -193 2
-207 2 l-25 2 -3 149 c-2 112 1 151 10 157 21 13 1169 11 1185 -2z m582 -7
c10 -18 35 -88 76 -207 13 -38 47 -133 75 -210 74 -203 100 -280 119 -359 16
-66 41 -101 41 -58 0 32 82 290 120 377 5 11 14 38 21 60 7 22 16 45 20 50 4
6 10 27 14 47 7 38 -5 83 -61 222 -14 36 -24 72 -21 80 4 11 40 14 169 15 90
1 168 -2 174 -6 5 -5 16 -24 23 -43 7 -19 17 -44 22 -55 4 -11 15 -40 23 -65
14 -43 47 -132 116 -320 17 -47 38 -105 46 -130 8 -25 18 -52 21 -60 4 -8 16
-46 27 -84 21 -69 46 -99 46 -56 0 12 59 199 131 415 93 278 136 395 148 397
32 9 306 8 319 0 15 -10 21 10 -143 -467 -64 -187 -132 -385 -150 -440 -108
-322 -167 -490 -177 -502 -8 -9 -45 -13 -139 -13 -144 0 -150 3 -170 73 -7 23
-15 47 -19 52 -3 6 -12 30 -20 55 -7 25 -17 49 -22 55 -4 5 -8 17 -8 27 0 10
-4 26 -9 36 -15 30 -29 65 -61 157 -85 242 -83 238 -98 218 -7 -10 -15 -29
-18 -43 -3 -14 -9 -34 -14 -45 -5 -11 -11 -29 -13 -40 -3 -11 -24 -72 -47
-135 -23 -63 -62 -173 -87 -245 -25 -71 -49 -137 -54 -146 -7 -13 -31 -16
-142 -18 -100 -2 -136 1 -144 11 -6 7 -25 54 -42 103 -18 50 -36 99 -41 110
-5 11 -16 40 -24 65 -8 25 -36 101 -61 170 -26 69 -55 150 -65 180 -10 30 -33
93 -50 140 -18 47 -36 96 -40 110 -11 32 -50 142 -90 250 -18 47 -35 96 -40
110 -4 14 -20 56 -34 95 -20 52 -23 71 -13 77 6 4 89 8 184 8 154 0 173 -2
182 -18z m4496 1 c17 -6 50 -17 75 -24 53 -15 134 -65 172 -105 15 -16 39 -54
54 -84 26 -51 28 -63 28 -175 0 -109 -2 -125 -27 -178 -26 -56 -138 -187 -161
-187 -6 0 -20 -7 -30 -15 -19 -14 -18 -15 7 -36 33 -25 67 -82 107 -179 39
-93 70 -127 125 -135 74 -12 72 7 18 -255 -11 -49 -21 -53 -113 -47 -118 8
-174 30 -235 91 -47 47 -113 157 -130 216 -8 26 -49 125 -63 149 -22 38 -63
56 -130 56 l-67 0 -3 -247 c-2 -247 -2 -248 -25 -253 -12 -3 -92 -5 -177 -3
l-155 3 -3 700 c-1 385 0 706 3 714 4 11 66 12 353 9 201 -3 360 -9 377 -15z
m1114 11 l31 -6 2 -262 3 -261 30 0 c28 0 42 18 207 259 97 142 182 262 189
267 17 10 381 11 397 1 11 -8 -83 -148 -389 -573 -26 -37 -52 -77 -59 -88 -10
-19 9 -51 172 -292 101 -148 211 -311 246 -361 48 -69 60 -93 50 -100 -7 -4
-103 -7 -212 -6 l-200 3 -188 283 c-176 265 -191 283 -216 280 l-27 -3 -3
-275 c-2 -204 -5 -276 -15 -282 -14 -9 -308 -11 -331 -2 -14 6 -16 77 -16 709
0 553 3 704 13 708 18 8 279 8 316 1z"/>
<path d="M3050 11605 l0 -245 77 0 c99 0 187 16 243 43 92 46 128 192 79 322
-37 99 -95 125 -275 125 l-124 0 0 -245z"/>
<path d="M11060 11704 l0 -145 180 3 180 3 32 32 c28 28 32 40 35 95 5 79 -9
106 -67 136 -40 20 -58 22 -202 22 l-158 0 0 -146z"/>
<path d="M11065 11167 c-3 -7 -4 -85 -3 -172 l3 -160 105 -3 c268 -9 380 46
380 187 0 60 -30 108 -85 136 -34 16 -66 20 -218 22 -140 3 -178 1 -182 -10z"/>
<path d="M11740 9419 c-108 -12 -174 -57 -221 -150 -112 -223 -53 -613 104
-683 99 -44 231 -50 304 -15 60 29 126 106 151 176 47 132 47 355 0 480 -54
146 -170 212 -338 192z"/>
<path d="M13260 9236 l0 -156 114 0 c129 0 172 12 206 60 29 40 37 124 17 171
-24 57 -69 73 -214 77 l-123 4 0 -156z"/>
</g>
</svg>
