<?xml version="1.0" standalone="no"?>
<!DOCTYPE svg PUBLIC "-//W3C//DTD SVG 20010904//EN"
 "http://www.w3.org/TR/2001/REC-SVG-20010904/DTD/svg10.dtd">
<svg version="1.0" xmlns="http://www.w3.org/2000/svg"
 width="225.000000pt" height="225.000000pt" viewBox="0 0 225.000000 225.000000"
 preserveAspectRatio="xMidYMid meet">

<g transform="translate(0.000000,225.000000) scale(0.100000,-0.100000)"
fill="#000000" stroke="none">
<path d="M0 1125 l0 -1125 1125 0 1125 0 0 1125 0 1125 -1125 0 -1125 0 0
-1125z m1325 699 c161 -79 256 -258 226 -427 -30 -174 -161 -306 -335 -338
-166 -30 -349 68 -428 229 -31 62 -33 73 -33 172 0 96 3 110 29 165 51 104
146 187 251 222 25 8 76 12 135 10 81 -3 103 -7 155 -33z m-574 -1064 c10 -6
19 -17 19 -25 0 -17 -27 -20 -50 -5 -25 16 -40 -9 -40 -65 0 -56 11 -70 43
-53 23 12 22 24 -4 31 -33 9 -17 32 24 35 36 3 37 2 37 -31 0 -68 -64 -106
-113 -67 -24 19 -27 28 -27 87 0 48 5 72 17 85 18 20 64 24 94 8z m183 -6 c28
-27 19 -36 -29 -28 l-45 6 0 -60 c0 -59 9 -75 38 -65 17 6 15 33 -3 33 -8 0
-15 9 -15 20 0 16 7 20 34 20 42 0 50 -11 42 -56 -13 -68 -106 -81 -135 -18
-18 41 -14 108 10 138 24 30 78 36 103 10z m108 -66 l3 -83 43 -3 c34 -3 43
-7 40 -20 -3 -14 -15 -17 -63 -17 l-60 0 -3 89 c-3 99 0 116 22 116 12 0 16
-17 18 -82z m143 70 c2 -7 9 -33 16 -58 l12 -45 17 55 c11 39 21 55 33 55 23
0 23 -2 -3 -106 -22 -87 -39 -114 -61 -92 -8 8 -59 175 -59 196 0 12 40 8 45
-5z m191 -19 l16 -31 19 31 c18 30 38 39 52 24 4 -3 -5 -26 -19 -51 l-26 -44
26 -48 c14 -26 23 -50 19 -54 -14 -13 -32 -5 -51 26 l-20 31 -16 -31 c-16 -32
-39 -41 -51 -22 -3 5 5 29 19 53 l25 42 -24 44 c-30 52 -31 61 -5 61 12 0 26
-12 36 -31z m252 15 c19 -13 22 -24 22 -85 0 -89 -18 -112 -88 -107 l-47 3 -3
89 c-2 49 -1 95 2 103 7 18 86 17 114 -3z"/>
<path d="M1046 1804 c-98 -30 -178 -101 -223 -199 -24 -52 -28 -72 -28 -150 1
-77 5 -98 28 -145 36 -75 106 -146 175 -178 50 -24 70 -27 157 -27 89 0 106 3
157 28 122 60 199 185 200 324 0 89 -20 153 -70 217 -93 123 -251 174 -396
130z m62 -401 c-44 -44 -60 -55 -69 -46 -9 9 -3 23 26 58 l38 47 -38 38 c-33
34 -36 41 -25 55 12 15 20 10 69 -39 l56 -56 -57 -57z m202 -43 c0 -18 -7 -20
-75 -20 -68 0 -75 2 -75 20 0 18 7 20 75 20 68 0 75 -2 75 -20z"/>
<path d="M1554 717 c-3 -8 -4 -36 -2 -63 3 -45 5 -49 28 -49 24 0 25 3 25 60
0 55 -2 60 -23 63 -12 2 -24 -3 -28 -11z"/>
</g>
</svg>
